<svg width="32" height="32" viewBox="0 0 32 32" fill="none" xmlns="http://www.w3.org/2000/svg">
    <path fill-rule="evenodd" clip-rule="evenodd" d="M16 4C9.372 4 4 9.373 4 16s5.372 12 12 12c6.627 0 12-5.373 12-12S22.627 4 16 4zM1.333 16C1.333 7.9 7.899 1.333 16 1.333 24.1 1.333 30.666 7.9 30.666 16S24.1 30.667 16 30.667C7.9 30.667 1.333 24.1 1.333 16z" fill="#0D0626"/>
    <path fill-rule="evenodd" clip-rule="evenodd" d="M7.47 21.692A5.778 5.778 0 0 1 11.555 20h8.89a5.777 5.777 0 0 1 5.777 5.778 1.333 1.333 0 0 1-2.667 0 3.11 3.11 0 0 0-3.11-3.111h-8.89a3.11 3.11 0 0 0-3.11 3.11 1.333 1.333 0 0 1-2.667 0c0-1.532.608-3.001 1.692-4.085zM16 10a3.111 3.111 0 1 0 0 6.222A3.111 3.111 0 0 0 16 10zm-5.778 3.111a5.778 5.778 0 1 1 11.555 0 5.778 5.778 0 0 1-11.555 0z" fill="#0D0626"/>
</svg>
